<svg width="31" height="30" viewBox="0 0 31 30" fill="none" xmlns="http://www.w3.org/2000/svg">
<path d="M22.835 17.4827L17.3021 23.0155C14.6506 25.667 10.3517 25.667 7.70014 23.0155C5.04863 20.364 5.04863 16.0651 7.70014 13.4135L15.1478 5.96589C16.9168 4.19687 19.785 4.19687 21.554 5.96589C23.323 7.73491 23.323 10.6031 21.554 12.3721L13.8717 20.0544C13.0406 20.8855 11.693 20.8855 10.8618 20.0544C10.0307 19.2232 10.0307 17.8757 10.8618 17.0445L16.6293 11.277C16.9222 10.9841 16.9222 10.5093 16.6293 10.2164C16.3364 9.92347 15.8616 9.92347 15.5687 10.2164L9.80119 15.9839C8.38425 17.4008 8.38425 19.6981 9.80119 21.115C11.2181 22.532 13.5154 22.532 14.9324 21.115L22.6147 13.4327C24.9695 11.0779 24.9695 7.26004 22.6147 4.90523C20.2598 2.55042 16.442 2.55042 14.0871 4.90523L6.63948 12.3529C3.40218 15.5902 3.40218 20.8389 6.63948 24.0762C9.87678 27.3135 15.1255 27.3135 18.3628 24.0762L23.8956 18.5433C24.1885 18.2504 24.1885 17.7756 23.8956 17.4827C23.6027 17.1898 23.1279 17.1898 22.835 17.4827Z" fill="#858E99"/>
</svg>
