<svg width="20" height="25" viewBox="0 0 20 25" fill="none" xmlns="http://www.w3.org/2000/svg">
<path fill-rule="evenodd" clip-rule="evenodd" d="M9.5 0C12.2614 0 14.5 2.23858 14.5 5V12C14.5 14.7614 12.2614 17 9.5 17C6.73858 17 4.5 14.7614 4.5 12V5C4.5 2.23858 6.73858 0 9.5 0ZM18 11.25C18.4142 11.25 18.75 11.5858 18.75 12C18.75 16.6029 15.0002 20.3603 10.2509 20.7216L10.25 24C10.25 24.4142 9.91421 24.75 9.5 24.75C9.1203 24.75 8.80651 24.4678 8.75685 24.1018L8.75 24L8.75008 20.7216C4.00034 20.3609 0.25 16.6032 0.25 12C0.25 11.5858 0.585786 11.25 1 11.25C1.41421 11.25 1.75 11.5858 1.75 12C1.75 15.9936 5.20997 19.25 9.5 19.25C13.79 19.25 17.25 15.9936 17.25 12C17.25 11.5858 17.5858 11.25 18 11.25ZM6 5C6 3.067 7.567 1.5 9.5 1.5C11.433 1.5 13 3.067 13 5V12C13 13.933 11.433 15.5 9.5 15.5C7.567 15.5 6 13.933 6 12V5Z" fill="#858E99"/>
</svg>
