<svg width="20" height="20" viewBox="0 0 20 20" fill="none" xmlns="http://www.w3.org/2000/svg">
<path d="M10.815 10.197L3.28299 11.453C3.19639 11.4675 3.11513 11.5045 3.04737 11.5603C2.97961 11.6161 2.92775 11.6888 2.89699 11.771L0.299988 18.728C0.0519883 19.368 0.720988 19.978 1.33499 19.671L19.335 10.671C19.4597 10.6088 19.5645 10.513 19.6378 10.3945C19.7111 10.276 19.7499 10.1394 19.7499 10C19.7499 9.86066 19.7111 9.72406 19.6378 9.60554C19.5645 9.48702 19.4597 9.39126 19.335 9.32901L1.33499 0.329007C0.720988 0.0220075 0.0519883 0.633008 0.299988 1.27201L2.89799 8.22901C2.9286 8.31142 2.98041 8.38431 3.04818 8.44031C3.11594 8.49632 3.19728 8.53347 3.28399 8.54801L10.816 9.80301C10.8623 9.81113 10.9043 9.83533 10.9346 9.87136C10.9649 9.9074 10.9815 9.95295 10.9815 10C10.9815 10.0471 10.9649 10.0926 10.9346 10.1287C10.9043 10.1647 10.8623 10.1889 10.816 10.197H10.815Z" fill="#8BABD8"/>
</svg>
