<svg width="24" height="24" viewBox="0 0 24 24" fill="none" xmlns="http://www.w3.org/2000/svg">
<path d="M12 1.99899C17.524 1.99899 22.002 6.47699 22.002 12.001C22.002 17.524 17.524 22.002 12 22.002C6.476 22.002 1.998 17.524 1.998 12.001C1.998 6.47699 6.476 1.99899 12 1.99899ZM12 3.49899C10.8758 3.4868 9.76036 3.69769 8.71822 4.11946C7.67608 4.54124 6.72793 5.16551 5.92866 5.95616C5.12939 6.74681 4.49487 7.68813 4.06182 8.72563C3.62877 9.76314 3.4058 10.8762 3.4058 12.0005C3.4058 13.1248 3.62877 14.2378 4.06182 15.2754C4.49487 16.3129 5.12939 17.2542 5.92866 18.0448C6.72793 18.8355 7.67608 19.4597 8.71822 19.8815C9.76036 20.3033 10.8758 20.5142 12 20.502C14.232 20.4678 16.361 19.5571 17.9274 17.9665C19.4937 16.376 20.3716 14.2333 20.3716 12.001C20.3716 9.76871 19.4937 7.62597 17.9274 6.03545C16.361 4.44493 14.232 3.53423 12 3.49999V3.49899ZM8.462 14.784C8.88275 15.32 9.41996 15.7532 10.0329 16.0509C10.6459 16.3485 11.3186 16.5028 12 16.502C12.6806 16.5028 13.3524 16.3489 13.9648 16.0519C14.5772 15.755 15.1141 15.3228 15.535 14.788C15.6583 14.6319 15.8386 14.5312 16.0362 14.5081C16.2337 14.4849 16.4324 14.5412 16.5885 14.6645C16.7446 14.7878 16.8453 14.9681 16.8684 15.1657C16.8916 15.3632 16.8353 15.5619 16.712 15.718C16.1507 16.4306 15.435 17.0064 14.6187 17.4021C13.8025 17.7977 12.9071 18.0028 12 18.002C11.0918 18.0027 10.1952 17.797 9.37821 17.4002C8.5612 17.0035 7.84508 16.4262 7.284 15.712C7.1662 15.5553 7.11439 15.3588 7.13968 15.1644C7.16497 14.9701 7.26533 14.7933 7.41929 14.6721C7.57326 14.5508 7.76858 14.4946 7.96346 14.5155C8.15834 14.5364 8.33729 14.6328 8.462 14.784ZM9 8.74999C9.16706 8.74527 9.33337 8.77409 9.4891 8.83476C9.64483 8.89542 9.78681 8.9867 9.90665 9.1032C10.0265 9.21969 10.1217 9.35904 10.1868 9.51298C10.2518 9.66693 10.2854 9.83237 10.2854 9.99949C10.2854 10.1666 10.2518 10.3321 10.1868 10.486C10.1217 10.64 10.0265 10.7793 9.90665 10.8958C9.78681 11.0123 9.64483 11.1036 9.4891 11.1642C9.33337 11.2249 9.16706 11.2537 9 11.249C8.67473 11.2398 8.36587 11.1041 8.13906 10.8708C7.91224 10.6375 7.78535 10.3249 7.78535 9.99949C7.78535 9.67409 7.91224 9.36152 8.13906 9.1282C8.36587 8.89488 8.67473 8.7592 9 8.74999ZM15 8.74999C15.1671 8.74527 15.3334 8.77409 15.4891 8.83476C15.6448 8.89542 15.7868 8.9867 15.9066 9.1032C16.0265 9.21969 16.1217 9.35904 16.1868 9.51298C16.2518 9.66693 16.2854 9.83237 16.2854 9.99949C16.2854 10.1666 16.2518 10.3321 16.1868 10.486C16.1217 10.64 16.0265 10.7793 15.9066 10.8958C15.7868 11.0123 15.6448 11.1036 15.4891 11.1642C15.3334 11.2249 15.1671 11.2537 15 11.249C14.6747 11.2398 14.3659 11.1041 14.1391 10.8708C13.9122 10.6375 13.7854 10.3249 13.7854 9.99949C13.7854 9.67409 13.9122 9.36152 14.1391 9.1282C14.3659 8.89488 14.6747 8.7592 15 8.74999Z" fill="#707991"/>
</svg>
